<?xml version="1.0" standalone="no"?>
<!DOCTYPE svg PUBLIC "-//W3C//DTD SVG 20010904//EN"
 "http://www.w3.org/TR/2001/REC-SVG-20010904/DTD/svg10.dtd">
<svg version="1.0" xmlns="http://www.w3.org/2000/svg"
 width="900.000000pt" height="426.000000pt" viewBox="0 0 900.000000 426.000000"
 preserveAspectRatio="xMidYMid meet">
<metadata>
Created by potrace 1.10, written by Peter Selinger 2001-2011
</metadata>
<g transform="translate(0.000000,426.000000) scale(0.100000,-0.100000)"
fill="#000000" stroke="none">
<path d="M1285 4229 c-7 -33 4 -49 36 -49 24 0 54 25 41 34 -7 4 -12 16 -12
27 0 14 -7 19 -29 19 -25 0 -30 -5 -36 -31z"/>
<path d="M8817 4221 c-6 -2 -27 -17 -45 -32 l-33 -29 -934 0 c-565 0 -936 -4
-940 -9 -3 -5 0 -13 7 -18 7 -4 435 -9 950 -11 l937 -2 39 35 c38 34 42 35
121 35 63 0 81 3 81 14 0 11 -20 15 -85 18 -47 2 -91 1 -98 -1z"/>
<path d="M1410 4210 c-10 -6 64 -10 220 -11 129 -1 279 -3 332 -3 l98 -1 135
-135 c74 -74 145 -138 157 -141 13 -3 70 -4 128 -1 87 4 112 2 139 -12 31 -17
34 -17 52 0 26 23 24 42 -5 55 -17 8 -29 8 -44 0 -12 -6 -71 -11 -135 -11
-134 0 -112 -12 -278 154 l-116 116 -334 0 c-198 0 -340 -4 -349 -10z"/>
<path d="M5811 4191 c-8 -5 -31 -6 -51 -4 -32 5 -39 2 -45 -16 -10 -32 2 -42
48 -40 23 0 51 -1 62 -3 15 -2 21 3 23 23 3 30 -17 52 -37 40z"/>
<path d="M5433 4174 c-8 -20 8 -48 30 -52 18 -4 34 39 22 57 -10 17 -45 13
-52 -5z"/>
<path d="M5503 4173 c-8 -20 11 -49 29 -44 7 2 32 3 55 2 45 -2 55 5 47 36 -5
17 -14 20 -65 20 -45 1 -62 -3 -66 -14z"/>
<path d="M5655 4170 c-8 -25 11 -51 31 -43 20 8 14 57 -8 61 -10 2 -19 -5 -23
-18z"/>
<path d="M6756 4167 c-22 -16 -18 -45 9 -63 43 -28 100 33 59 63 -10 7 -25 13
-34 13 -9 0 -24 -6 -34 -13z"/>
<path d="M184 4127 c-16 -12 -50 -44 -75 -70 -26 -26 -59 -50 -75 -53 -27 -5
-29 -9 -31 -55 -1 -27 2 -49 7 -49 6 0 10 4 10 9 0 6 16 22 36 37 l35 27 416
-2 c334 -2 422 -5 444 -16 34 -18 92 -75 84 -84 -4 -3 -102 -5 -218 -3 l-212
4 -128 -129 c-71 -71 -132 -134 -135 -139 -4 -5 -24 -24 -45 -42 l-38 -32
-129 0 c-109 0 -130 -2 -130 -15 0 -12 19 -15 115 -15 63 0 115 -3 115 -6 0
-3 -52 -56 -115 -118 -75 -74 -115 -121 -115 -135 0 -11 4 -21 8 -21 5 0 70
63 146 140 l138 140 265 0 266 0 146 -147 c80 -82 157 -157 169 -168 22 -18
37 -19 268 -16 158 1 244 -1 244 -8 0 -5 -15 -26 -34 -45 -27 -29 -41 -36 -72
-37 -22 0 -378 0 -791 1 l-753 1 0 -25 0 -26 781 -2 c611 -2 785 0 804 10 13
6 51 39 83 73 l60 60 406 -2 c224 -1 408 0 411 2 2 2 37 35 77 73 l73 69 259
-1 c142 -1 260 -2 262 -4 2 -2 39 -38 82 -80 l79 -78 626 0 c437 0 633 3 650
11 22 10 28 7 59 -26 31 -34 38 -37 70 -31 41 8 74 57 57 87 -28 54 -67 62
-118 25 -24 -18 -42 -23 -74 -21 -23 2 -314 4 -648 4 l-605 1 -76 75 -76 75
-288 0 -289 0 -70 -69 -70 -69 -115 -7 c-129 -7 -622 -7 -629 1 -9 8 15 38 40
51 16 9 77 13 187 13 134 0 162 2 162 14 0 22 -21 25 -190 27 -136 3 -158 1
-182 -15 -16 -10 -28 -22 -28 -27 0 -5 -18 -22 -40 -38 l-39 -28 -238 3 c-131
3 -247 4 -258 4 -13 0 -79 59 -185 165 l-165 166 -244 -3 c-178 -2 -245 0
-248 9 -2 6 36 49 84 95 48 45 109 106 135 133 l48 50 217 5 c251 6 249 6 327
-77 83 -89 209 -216 245 -246 l34 -29 769 6 770 5 77 74 78 75 229 4 c213 4
230 3 243 -14 14 -18 37 -23 65 -12 19 7 22 64 4 82 -17 17 -49 15 -63 -5 -11
-14 -39 -16 -260 -14 l-248 2 -73 -75 -73 -76 -757 0 -756 0 -78 78 c-42 42
-107 105 -144 140 -36 35 -66 68 -66 73 0 5 113 9 269 9 l269 0 87 -87 87 -88
291 -3 c285 -3 397 2 397 17 0 25 -64 31 -348 32 -163 0 -305 3 -314 7 -9 4
-53 42 -98 86 l-81 78 -303 -3 -303 -4 -74 73 -73 73 -413 -3 c-380 -3 -413
-2 -413 14 0 9 17 30 39 47 l38 30 834 1 c459 1 859 1 890 1 l55 -1 87 -87
c47 -49 108 -111 136 -140 27 -28 58 -56 70 -62 12 -7 108 -11 263 -11 l242 0
59 58 58 57 765 3 c755 2 766 2 791 -18 32 -25 48 -25 73 0 27 27 26 65 -2 84
-31 22 -41 20 -78 -10 l-31 -27 -737 8 c-405 4 -739 7 -742 7 -46 3 -66 -6
-108 -49 -73 -77 -70 -76 -306 -74 -165 1 -213 5 -230 16 -11 8 -83 76 -158
151 l-137 136 -368 0 c-203 0 -607 1 -899 3 l-531 4 -29 -22z m4606 -957 c0
-11 -7 -20 -15 -20 -8 0 -15 9 -15 20 0 11 7 20 15 20 8 0 15 -9 15 -20z"/>
<path d="M8943 4132 c-7 -4 -57 -51 -111 -103 -88 -85 -104 -97 -143 -102 -24
-3 -194 -6 -377 -7 l-333 -1 -73 71 -73 71 -574 2 c-863 3 -1830 -2 -1844 -11
-8 -4 -40 -33 -74 -65 l-60 -58 -175 -2 c-108 -2 -180 -7 -187 -14 -6 -6 -7
-13 -2 -16 7 -4 332 -11 380 -8 7 1 43 30 79 66 l66 65 652 1 c358 0 892 0
1186 0 l535 -2 29 -27 c17 -15 36 -32 43 -39 7 -6 13 -16 13 -22 0 -8 -279
-10 -954 -9 l-955 2 -91 -89 c-50 -50 -98 -93 -108 -97 -9 -4 -389 -7 -843 -7
-696 -1 -828 -3 -845 -15 -10 -8 -15 -18 -11 -23 9 -9 1640 -16 1694 -7 23 3
59 31 134 104 l102 100 969 -3 968 -2 35 -40 c20 -22 99 -105 177 -184 l141
-144 133 7 c79 4 135 3 138 -3 4 -5 -22 -34 -56 -65 l-63 -56 -257 1 c-141 0
-262 -2 -267 -6 -15 -8 -109 44 -116 64 -3 9 -65 76 -139 149 l-133 134 -534
1 -534 1 -72 -71 c-85 -84 -64 -80 -363 -73 -118 3 -336 3 -485 0 -261 -5
-271 -5 -305 16 -44 26 -81 19 -94 -19 -8 -21 -6 -31 9 -47 22 -24 38 -25 68
-5 20 12 98 15 522 15 275 0 506 0 513 0 6 0 12 -7 12 -15 0 -8 -6 -15 -14
-15 -8 0 -33 -21 -55 -47 -34 -38 -50 -48 -89 -54 -26 -4 -549 -6 -1162 -2
-781 3 -1140 2 -1199 -6 -81 -10 -86 -10 -108 11 -31 29 -76 16 -81 -25 -4
-35 38 -58 69 -39 15 10 302 13 1277 12 l1258 0 62 65 c34 37 62 70 62 75 0 4
19 17 43 27 39 17 62 18 290 13 l248 -5 83 -86 c125 -131 92 -123 527 -116
l369 7 69 -70 68 -70 497 0 c489 0 496 0 496 20 0 20 -7 20 -483 20 -467 0
-485 1 -508 20 -46 37 -59 54 -59 73 0 15 4 18 23 12 12 -4 124 -9 250 -12
170 -4 235 -2 258 7 16 7 61 47 100 89 l70 76 175 -2 c174 -2 174 -1 174 21 0
22 0 22 -150 18 -82 -3 -150 -1 -150 4 0 4 26 32 58 61 61 56 64 57 175 53 66
-2 67 -2 67 24 l0 26 -101 0 -100 0 -83 -85 -82 -85 -138 0 c-161 0 -172 4
-259 98 -29 31 -74 76 -101 101 -101 95 -117 112 -111 122 5 6 126 10 348 9
188 -1 352 -1 364 0 13 0 40 19 65 46 88 95 164 164 181 164 10 0 17 8 17 20
0 21 -32 28 -57 12z m-1274 -572 c83 -82 151 -154 151 -160 0 -17 -25 -22 -56
-9 -20 7 -130 10 -341 10 l-312 -2 -88 86 c-48 48 -95 93 -105 101 -13 13 -53
15 -227 14 -117 0 -225 -3 -241 -7 -46 -9 -39 26 15 76 l45 41 504 0 504 0
151 -150z"/>
<path d="M3614 4076 c-3 -8 -4 -25 -2 -38 2 -18 9 -23 33 -23 26 0 30 4 33 29
2 16 -2 32 -10 37 -20 13 -48 11 -54 -5z"/>
<path d="M3757 4083 c-14 -4 -17 -13 -15 -36 2 -26 8 -33 30 -35 22 -3 30 2
40 23 11 24 10 29 -7 41 -10 8 -21 13 -24 13 -3 -1 -14 -3 -24 -6z"/>
<path d="M3887 4076 c-15 -16 -13 -51 5 -62 5 -3 20 -3 34 0 19 5 24 13 24 36
0 17 -4 30 -9 30 -5 0 -16 3 -24 6 -8 3 -21 -2 -30 -10z"/>
<path d="M4027 4083 c-14 -4 -17 -13 -15 -36 3 -28 7 -32 33 -32 26 0 30 4 33
29 3 25 -11 48 -28 45 -3 -1 -13 -3 -23 -6z"/>
<path d="M4156 4074 c-19 -19 -20 -25 -3 -48 8 -11 23 -17 38 -14 31 4 39 46
13 65 -23 17 -29 16 -48 -3z"/>
<path d="M4292 4081 c-8 -4 -12 -21 -10 -37 3 -25 7 -29 33 -29 28 0 30 3 30
35 0 27 -4 36 -20 38 -11 1 -26 -2 -33 -7z"/>
<path d="M8145 4039 c-4 -5 -4 -17 0 -27 8 -27 122 -26 131 1 3 10 3 21 -1 25
-10 10 -124 11 -130 1z"/>
<path d="M8295 4040 c-9 -15 4 -50 19 -50 6 0 17 5 24 12 8 8 15 8 26 -1 12
-10 21 -10 43 1 25 12 30 12 45 -7 16 -20 16 -20 29 8 16 35 -1 58 -29 41 -12
-8 -24 -8 -40 -1 -17 8 -29 8 -44 -2 -15 -9 -23 -10 -31 -2 -14 14 -34 14 -42
1z"/>
<path d="M8507 4043 c-11 -10 -8 -28 7 -48 14 -19 15 -19 35 -1 12 11 21 25
21 31 0 20 -48 34 -63 18z"/>
<path d="M1244 4007 c-11 -30 0 -52 30 -55 16 -2 33 1 39 7 16 16 441 15 470
0 12 -7 53 -43 92 -81 67 -66 107 -88 162 -88 24 0 37 27 27 55 -6 14 -15 16
-51 11 l-44 -6 -82 80 -82 80 -231 0 c-127 0 -252 3 -277 6 -37 5 -48 3 -53
-9z"/>
<path d="M8971 3966 c-7 -8 -28 -22 -47 -31 -29 -14 -35 -21 -32 -43 2 -21 8
-27 28 -27 19 0 29 8 39 33 8 17 21 32 28 32 15 0 18 36 4 44 -5 3 -14 -1 -20
-8z"/>
<path d="M4796 3944 c-17 -16 -21 -51 -8 -71 4 -6 18 -14 32 -18 20 -5 32 1
54 24 l28 30 -25 25 c-30 30 -58 33 -81 10z"/>
<path d="M6281 3838 c-13 -33 12 -57 39 -40 14 8 27 9 46 1 37 -14 62 8 44 40
l-11 22 -34 -20 c-34 -19 -34 -19 -40 0 -9 26 -34 24 -44 -3z"/>
<path d="M6590 3839 c-17 -32 1 -44 67 -44 50 0 58 3 61 20 1 11 -2 27 -8 35
-8 13 -13 13 -40 -3 -27 -17 -32 -17 -46 -3 -20 20 -21 20 -34 -5z"/>
<path d="M7142 3848 c-16 -16 -15 -48 1 -49 6 0 152 0 322 1 l310 1 113 -115
c61 -62 112 -120 112 -129 0 -25 41 -46 68 -34 39 18 20 65 -35 81 -11 4 -28
17 -36 29 -16 24 -64 74 -151 156 l-57 53 -279 -6 c-241 -6 -283 -5 -309 8
-36 19 -43 20 -59 4z"/>
<path d="M6435 3829 c-5 -14 -2 -25 6 -30 21 -13 34 -5 34 22 0 31 -31 38 -40
8z"/>
<path d="M6506 3834 c-21 -20 -12 -34 23 -34 34 0 40 6 34 31 -6 23 -36 25
-57 3z"/>
<path d="M3958 3749 c-49 -25 -49 -50 -2 -78 46 -27 62 -26 76 4 14 30 -1 89
-22 91 -8 1 -32 -7 -52 -17z"/>
<path d="M2590 3694 c-20 -52 21 -81 68 -48 40 28 22 74 -30 74 -21 0 -31 -6
-38 -26z"/>
<path d="M0 3627 c0 -40 15 -50 25 -16 5 14 1 27 -9 37 -15 15 -16 13 -16 -21z"/>
<path d="M91 3651 c-17 -11 -7 -56 14 -65 33 -12 62 24 48 60 -6 16 -41 18
-62 5z"/>
<path d="M6497 3423 c-12 -12 -7 -50 8 -63 11 -9 23 -8 59 5 34 13 68 16 145
13 l102 -3 77 -80 77 -80 370 -2 c258 -2 380 -6 402 -15 25 -9 35 -9 47 1 18
16 21 47 5 57 -6 3 -188 6 -404 5 l-393 -2 -77 74 c-74 72 -79 75 -136 81 -33
3 -92 3 -133 0 -50 -5 -75 -3 -80 5 -8 12 -58 15 -69 4z"/>
<path d="M8734 3395 c-21 -21 -24 -28 -13 -41 25 -30 49 -37 69 -19 16 14 37
17 115 16 90 -2 95 -1 95 19 0 20 -3 20 -90 14 -73 -6 -94 -4 -108 8 -33 29
-42 29 -68 3z"/>
<path d="M289 3356 c-28 -30 -61 -57 -73 -60 -28 -7 -49 -49 -33 -65 25 -25
77 -6 77 29 0 14 33 50 93 98 12 10 56 13 176 13 l160 -2 55 -52 c29 -29 57
-62 60 -74 11 -36 67 -42 79 -9 7 18 -20 56 -39 56 -8 0 -41 27 -73 60 l-59
60 -186 0 -186 0 -51 -54z"/>
<path d="M2226 3319 c-21 -16 -24 -24 -16 -39 28 -52 100 -45 100 10 0 24 -6
33 -26 40 -32 13 -27 13 -58 -11z"/>
<path d="M6247 3231 c-18 -17 -80 -77 -138 -135 l-104 -106 -1205 -1 c-663 0
-1214 -4 -1224 -8 -19 -7 -19 -8 0 -16 22 -10 2405 -19 2444 -10 13 4 78 61
142 128 l118 122 202 3 c111 2 211 1 223 -2 11 -3 76 -61 144 -128 l124 -123
639 0 c351 0 638 -2 638 -5 0 -3 -28 -34 -63 -68 l-63 -62 -936 0 -936 0 -69
-65 -68 -64 -125 -1 c-128 0 -165 -9 -143 -31 8 -8 61 -14 153 -17 l140 -5 66
72 66 71 936 0 937 0 88 88 87 87 340 -4 340 -3 0 21 c0 21 -1 21 -315 21
-173 0 -315 4 -315 8 0 5 10 18 23 30 23 22 29 22 315 22 285 0 292 0 292 20
0 20 -7 20 -301 20 l-301 0 -41 -41 c-22 -22 -48 -44 -58 -50 -11 -5 -272 -9
-644 -9 -519 0 -631 2 -653 14 -15 8 -82 69 -149 135 l-122 121 -225 0 -225 0
-34 -29z"/>
<path d="M5086 3137 c-11 -8 -17 -22 -14 -38 2 -20 8 -24 38 -24 32 0 35 3 38
33 2 17 -1 32 -7 32 -5 0 -15 2 -23 5 -7 3 -22 -1 -32 -8z"/>
<path d="M5213 3142 c-5 -4 -15 -17 -21 -28 -14 -27 5 -47 40 -42 30 4 38 52
11 67 -11 5 -24 7 -30 3z"/>
<path d="M5316 3134 c-23 -22 -20 -53 7 -63 27 -11 47 3 47 33 0 21 -17 46
-31 46 -4 0 -15 -7 -23 -16z"/>
<path d="M5656 3135 c-34 -35 -6 -81 42 -68 17 4 22 13 22 39 0 19 -4 34 -9
34 -5 0 -16 3 -24 6 -8 3 -22 -2 -31 -11z"/>
<path d="M5416 3114 c-8 -32 6 -45 44 -42 21 3 25 8 25 33 0 26 -4 30 -31 33
-27 3 -33 -1 -38 -24z"/>
<path d="M5534 3126 c-12 -31 1 -51 34 -54 31 -3 32 -2 32 32 0 33 -2 36 -30
36 -17 0 -33 -6 -36 -14z"/>
<path d="M1716 2935 l-117 -115 -604 0 -604 0 -27 -25 c-41 -38 -46 -37 -109
36 -55 62 -71 69 -167 69 -81 0 -88 -2 -88 -20 0 -18 7 -20 79 -20 l79 0 65
-57 c36 -32 66 -63 66 -69 1 -6 -32 -43 -73 -82 l-74 -72 -71 0 c-64 0 -71 -2
-71 -20 0 -18 7 -20 84 -20 l83 0 72 75 c42 45 79 75 91 75 11 0 20 -3 20 -8
0 -9 89 -102 126 -131 26 -21 33 -21 593 -21 335 0 572 4 581 10 8 5 53 47
100 94 l85 86 474 1 474 1 76 -76 c42 -42 85 -82 96 -90 17 -13 145 -15 955
-15 555 -1 941 3 950 9 8 5 11 13 6 17 -4 4 -424 9 -933 10 l-926 3 -36 27
c-20 14 -66 58 -104 96 l-67 70 -58 -7 c-80 -9 -797 -10 -853 -1 -28 4 -55 3
-66 -4 -11 -5 -62 -51 -112 -100 l-93 -91 -552 0 -551 0 -59 60 c-33 33 -68
62 -78 66 -25 8 -23 49 4 68 20 14 97 16 634 16 l612 0 104 103 c56 57 114
108 128 114 17 7 194 9 553 7 443 -2 532 -5 550 -17 13 -8 52 -44 87 -81 l65
-66 585 0 c342 0 591 4 600 10 11 7 8 11 -15 20 -21 9 -150 11 -445 9 -228 -1
-477 -1 -553 0 l-139 1 -88 85 -89 85 -569 0 -570 -1 -116 -114z"/>
<path d="M3463 3009 c-40 -25 -41 -41 -7 -68 31 -25 57 -27 74 -6 25 30 8 95
-24 95 -6 0 -26 -10 -43 -21z"/>
<path d="M1956 2907 c-11 -8 -17 -23 -14 -38 2 -19 10 -25 35 -27 28 -3 33 0
39 24 5 20 2 31 -11 41 -23 16 -27 16 -49 0z"/>
<path d="M2228 2909 c-24 -14 -23 -45 3 -63 27 -19 47 -11 56 22 4 18 1 29
-12 39 -22 15 -25 16 -47 2z"/>
<path d="M2496 2907 c-23 -17 -18 -45 10 -64 19 -12 24 -12 38 2 20 21 20 39
0 59 -19 19 -25 20 -48 3z"/>
<path d="M2630 2906 c-6 -8 -10 -25 -8 -38 2 -18 10 -24 34 -26 27 -3 33 1 38
25 11 42 -37 71 -64 39z"/>
<path d="M2084 2896 c-12 -31 1 -51 32 -54 25 -2 33 1 37 18 3 12 3 28 0 36
-7 18 -62 18 -69 0z"/>
<path d="M2354 2896 c-12 -31 1 -51 32 -54 25 -2 33 1 37 18 3 12 3 28 0 36
-7 18 -62 18 -69 0z"/>
<path d="M4344 2883 l-26 -28 29 -22 c35 -28 55 -29 79 -2 17 19 17 23 3 47
-21 38 -53 40 -85 5z"/>
<path d="M3971 2706 c-7 -8 -11 -27 -9 -43 3 -25 7 -28 42 -28 30 0 40 5 47
21 16 46 -50 87 -80 50z"/>
<path d="M5732 2694 c-39 -27 -22 -74 26 -74 34 0 62 18 62 39 0 37 -54 59
-88 35z"/>
<path d="M4675 2690 c-330 -3 -601 -6 -603 -8 -2 -1 0 -7 3 -12 4 -7 156 -11
448 -10 243 0 515 -3 605 -7 l164 -6 119 -118 118 -117 493 4 492 3 50 48 c28
26 53 52 57 56 3 4 34 37 69 73 l63 64 736 0 c1528 0 1402 2 1430 -16 14 -9
34 -25 44 -35 26 -28 37 -23 37 16 0 26 -4 35 -16 35 -9 0 -22 7 -28 15 -10
14 -130 16 -1120 16 -1042 -1 -1111 -2 -1129 -18 -11 -10 -66 -64 -123 -120
l-102 -103 -462 0 -463 0 -119 120 c-66 66 -124 120 -128 120 -5 0 -14 1 -22
3 -7 1 -283 0 -613 -3z"/>
<path d="M2605 2612 c-18 -17 -31 -18 -115 -11 -52 4 -200 8 -329 8 l-234 1
-94 -92 -94 -93 -337 -5 c-270 -4 -343 -2 -366 8 -55 26 -101 -22 -60 -62 20
-21 40 -20 61 2 17 16 45 17 365 14 l347 -3 101 95 101 95 317 3 c294 3 319 2
345 -15 50 -34 96 -3 76 51 -10 28 -56 30 -84 4z"/>
<path d="M4923 2608 c-21 -27 -23 -51 -8 -74 19 -29 38 -30 75 -4 34 25 30 54
-11 75 -34 18 -44 19 -56 3z"/>
<path d="M7460 2610 c-9 -6 -146 -10 -337 -10 l-321 0 -139 -135 -138 -136
-429 2 c-270 0 -431 -3 -435 -9 -3 -5 -25 -26 -49 -45 l-43 -36 -1004 -1
c-670 0 -1006 3 -1010 10 -11 18 -64 11 -75 -9 -7 -15 -5 -24 8 -41 17 -22 19
-22 49 -6 35 17 122 18 1455 14 l618 -2 45 44 46 45 428 3 428 3 138 134 138
134 309 1 c267 0 309 -2 314 -15 7 -18 45 -20 62 -3 18 18 14 46 -7 58 -24 12
-32 12 -51 0z"/>
<path d="M8073 2614 c-18 -8 -16 -49 2 -64 26 -22 50 -8 50 30 0 28 -4 35 -20
37 -11 1 -26 -1 -32 -3z"/>
<path d="M8213 2614 c-18 -8 -16 -49 2 -64 26 -22 50 -8 50 30 0 28 -4 35 -20
37 -11 1 -26 -1 -32 -3z"/>
<path d="M8342 2608 c-18 -18 -14 -46 7 -58 30 -15 40 -12 53 15 19 41 -28 75
-60 43z"/>
<path d="M8480 2605 c-7 -8 -10 -25 -6 -40 8 -31 50 -35 66 -6 13 25 13 27 -6
45 -19 20 -38 20 -54 1z"/>
<path d="M8618 2609 c-23 -13 -23 -32 0 -52 26 -23 41 -21 54 8 18 41 -14 68
-54 44z"/>
<path d="M8744 2605 c-4 -8 -3 -26 0 -40 9 -35 52 -35 68 1 11 22 10 28 -7 40
-25 18 -54 18 -61 -1z"/>
<path d="M7617 2434 c-29 -28 -81 -81 -116 -117 -35 -37 -69 -67 -75 -67 -6 0
-330 -2 -719 -4 -389 -2 -710 -5 -712 -7 -2 -2 -57 -57 -123 -121 -66 -65
-126 -118 -133 -119 -8 0 -88 0 -177 -1 l-164 -1 -62 62 -63 63 -272 -2 c-255
-1 -273 0 -297 19 -14 11 -33 17 -44 14 -24 -6 -37 -49 -23 -72 14 -22 61 -27
69 -7 5 14 38 16 266 15 l259 0 42 -37 c23 -20 47 -42 52 -48 6 -6 26 -22 45
-36 35 -24 37 -24 218 -20 l183 4 128 129 127 129 682 0 c375 0 682 -4 682 -8
0 -5 -15 -22 -34 -38 -73 -65 -62 -63 -330 -65 l-246 -2 -34 27 c-43 32 -45
32 -79 1 -32 -30 -34 -44 -8 -73 18 -22 81 -32 81 -13 0 20 46 23 300 21 l266
-1 58 61 c98 103 54 95 510 91 238 -2 409 -7 421 -13 11 -5 77 -68 147 -140
127 -130 128 -131 165 -124 21 3 118 6 216 6 151 0 177 2 177 15 0 13 -29 15
-201 15 l-201 0 -80 78 c-44 42 -108 105 -141 140 l-60 62 -321 -1 c-177 0
-357 -4 -401 -9 -48 -5 -84 -5 -90 1 -10 10 94 122 159 170 l39 29 444 0 c304
0 451 -3 466 -11 12 -6 87 -77 167 -158 185 -187 220 -211 220 -150 0 19 -4
28 -11 24 -6 -4 -83 65 -173 155 -90 90 -170 166 -178 171 -8 5 -230 10 -492
11 l-477 3 -52 -51z"/>
<path d="M4393 2435 c-5 -14 -112 -16 -1015 -13 -942 3 -1010 2 -1019 -14 -15
-27 -72 -84 -96 -96 -15 -9 -134 -12 -400 -12 -208 0 -384 -4 -391 -9 -23 -14
15 -44 46 -36 13 3 192 6 396 6 l371 0 67 64 67 65 984 0 c858 0 986 -2 997
-15 11 -13 15 -13 41 1 35 17 37 37 7 58 -28 20 -47 20 -55 1z"/>
<path d="M127 2282 c-10 -10 -17 -23 -17 -28 0 -20 41 -54 65 -54 14 0 25 -4
25 -8 0 -5 20 -30 44 -56 l45 -47 306 2 c217 1 310 -2 318 -10 15 -15 50 -14
65 1 17 17 15 65 -4 72 -29 11 -47 6 -71 -20 -17 -19 -28 -24 -41 -17 -9 4
-133 9 -275 11 -278 3 -274 2 -337 59 -14 13 -28 23 -32 23 -5 0 -8 10 -8 23
0 30 -27 67 -49 67 -10 0 -25 -8 -34 -18z"/>
<path d="M2734 2272 c-12 -2 -72 -55 -133 -117 -62 -63 -121 -119 -131 -125
-13 -7 -248 -11 -672 -13 -359 -1 -661 -6 -670 -11 -36 -17 -19 26 27 70 l45
43 258 3 c254 3 257 3 285 -19 21 -17 36 -21 55 -16 81 20 59 123 -24 114 -6
0 -22 -11 -36 -24 -24 -23 -27 -23 -169 -15 -79 4 -197 6 -261 4 -132 -4 -144
-8 -203 -81 -21 -25 -52 -52 -70 -61 -18 -8 -38 -27 -46 -42 -7 -15 -49 -62
-94 -104 -78 -75 -105 -90 -160 -86 -11 1 -181 1 -377 0 -292 -2 -358 -4 -358
-15 0 -11 76 -15 403 -21 222 -4 412 -4 423 0 23 9 178 162 187 186 9 24 77
40 137 32 27 -4 341 -3 697 1 l648 7 121 120 c67 67 129 125 138 130 9 5 90 8
179 6 l162 -3 55 -41 c97 -71 147 -96 198 -97 172 -5 710 5 722 13 8 5 11 13
6 17 -4 4 -180 10 -391 13 l-383 5 -49 34 c-26 19 -67 48 -91 64 l-43 29 -182
2 c-100 0 -192 0 -203 -2z"/>
<path d="M0 2186 c0 -16 25 -49 78 -103 118 -122 86 -113 419 -113 294 0 453
7 453 20 0 19 -68 23 -401 29 l-356 6 -92 93 c-51 50 -94 92 -97 92 -2 0 -4
-11 -4 -24z"/>
<path d="M4147 2154 c-51 -27 -21 -79 41 -72 23 3 27 8 27 37 0 42 -27 56 -68
35z"/>
<path d="M7510 2134 c-20 -51 21 -80 73 -53 14 8 109 11 310 10 l290 -2 43
-32 c41 -31 59 -59 66 -102 2 -14 12 -21 36 -23 26 -3 34 1 43 21 15 33 -3 67
-36 67 -14 0 -32 8 -40 18 -8 9 -28 33 -44 52 l-29 35 -310 1 c-274 1 -313 3
-327 18 -26 25 -64 21 -75 -10z"/>
<path d="M4876 2033 c-4 -4 -452 -6 -996 -5 l-988 3 -45 -44 -46 -44 -152 -6
c-84 -4 -276 -7 -428 -7 -230 -1 -279 -3 -296 -16 -11 -8 -73 -67 -137 -130
l-117 -116 -346 3 c-233 2 -349 -1 -356 -8 -16 -16 7 -53 32 -53 11 0 29 5 40
11 13 6 132 10 335 9 l316 0 124 122 c72 71 138 128 157 134 22 8 144 10 406
7 205 -3 389 -2 408 2 19 3 51 21 71 39 20 18 46 38 58 44 15 8 206 11 625 12
332 0 760 1 950 2 257 1 355 -2 377 -11 17 -7 41 -11 54 -9 18 2 23 9 23 33 0
26 -4 30 -30 33 -17 2 -34 -1 -39 -5z"/>
<path d="M6165 1927 c-22 -23 -51 -51 -64 -61 -23 -19 -52 -20 -958 -23 -514
-2 -939 -6 -944 -9 -5 -3 -9 -11 -9 -18 0 -23 180 -27 1064 -24 l840 3 73 67
73 68 217 2 c120 1 290 0 379 -1 157 -3 214 5 199 30 -4 5 -169 9 -418 9
l-412 0 -40 -43z"/>
<path d="M8662 1868 c-17 -17 -15 -43 4 -59 12 -10 22 -10 48 -1 18 7 87 12
159 12 123 0 127 1 127 22 0 21 -2 21 -120 14 -98 -5 -125 -4 -149 9 -36 18
-53 19 -69 3z"/>
<path d="M7453 1859 c-7 -7 -124 -10 -362 -9 l-352 1 -91 -91 c-50 -49 -96
-90 -102 -90 -6 0 -142 -1 -303 -3 -213 -1 -295 -5 -304 -14 -26 -26 42 -33
338 -33 l295 0 78 78 c43 42 87 85 98 96 20 17 42 18 314 17 161 0 312 3 336
8 37 7 44 6 53 -10 6 -12 21 -19 39 -19 23 0 31 5 36 25 3 14 4 32 0 40 -6 17
-57 20 -73 4z"/>
<path d="M4103 1853 c-7 -2 -13 -18 -13 -34 0 -23 5 -30 27 -35 30 -8 56 5 61
30 7 35 -34 56 -75 39z"/>
<path d="M1943 1768 c-32 -28 -89 -83 -126 -122 l-68 -71 -757 -2 c-1076 -3
-992 -1 -992 -18 0 -14 54 -22 100 -16 8 1 21 2 28 1 31 -2 64 -2 154 1 54 1
100 1 102 -2 3 -3 1167 -3 1349 0 35 1 48 10 145 108 59 59 118 113 131 120
19 10 123 13 473 13 l450 -1 124 -120 124 -121 324 4 c178 1 328 6 332 10 4 5
4 11 0 15 -4 5 -151 10 -325 13 l-318 5 -115 118 -115 117 -481 0 -482 0 -57
-52z"/>
<path d="M3817 1706 c-59 -26 -61 -57 -6 -82 l41 -18 19 23 c19 24 18 52 -3
79 -12 14 -14 14 -51 -2z"/>
<path d="M6773 1624 c-43 -42 -90 -87 -106 -100 l-27 -23 -383 -2 c-210 0
-415 0 -456 1 -78 2 -132 20 -190 64 -19 14 -39 26 -44 26 -5 0 -37 19 -71 43
l-61 42 -740 0 c-407 0 -749 -4 -760 -9 -20 -8 -20 -8 0 -16 11 -5 340 -9 731
-8 l711 0 49 -22 c27 -13 51 -26 54 -29 3 -4 51 -35 107 -68 l101 -61 494 -1
493 -1 100 100 100 100 548 0 549 0 79 -72 c43 -40 79 -80 79 -89 0 -42 -4
-42 -626 -41 -350 0 -606 -3 -622 -9 -15 -5 -77 -59 -137 -119 l-109 -110
-535 1 c-357 0 -542 4 -555 11 -12 6 -55 43 -96 83 l-75 73 -1145 -2 c-630 0
-1153 -5 -1162 -10 -30 -14 -20 -23 30 -30 26 -3 544 -6 1151 -5 l1104 1 78
-78 79 -78 582 3 583 3 81 81 c45 45 93 92 106 105 l24 22 598 0 c543 1 601 2
625 18 14 9 30 22 34 29 15 25 38 13 99 -52 l61 -65 349 0 c341 0 348 0 348
20 0 20 -7 20 -334 20 l-334 0 -47 43 c-26 23 -54 46 -61 50 -26 15 -14 46 39
98 86 85 54 79 414 79 l323 0 0 25 0 26 -340 -3 -339 -3 -73 -77 c-41 -43 -77
-78 -82 -78 -5 0 -20 12 -34 28 -13 15 -49 53 -78 85 l-54 57 -575 0 -575 0
-77 -76z"/>
<path d="M0 1645 c0 -19 4 -35 9 -35 11 0 21 38 14 56 -10 26 -23 14 -23 -21z"/>
<path d="M83 1664 c-9 -24 10 -48 41 -52 25 -3 27 -1 24 30 -2 28 -7 34 -31
36 -18 2 -29 -2 -34 -14z"/>
<path d="M224 1666 c-12 -31 0 -51 31 -51 27 0 30 4 33 33 3 30 1 32 -28 32
-17 0 -33 -6 -36 -14z"/>
<path d="M353 1664 c-9 -24 10 -49 40 -52 21 -3 28 2 33 22 3 14 3 30 -1 35
-10 17 -65 13 -72 -5z"/>
<path d="M5804 1666 c-3 -8 -4 -25 -2 -38 4 -33 62 -39 78 -8 19 35 4 60 -36
60 -21 0 -37 -6 -40 -14z"/>
<path d="M2715 1610 c-12 -4 -26 -14 -33 -23 -9 -11 -22 -12 -55 -6 -23 4 -93
8 -156 9 l-114 0 -66 -67 -66 -68 -935 -5 c-679 -4 -940 -8 -955 -17 -11 -6
-49 -41 -84 -77 -34 -37 -71 -71 -80 -76 -10 -5 -52 -6 -94 -3 -72 6 -77 5
-77 -14 0 -18 6 -20 60 -17 32 2 62 0 65 -5 9 -16 -54 -70 -90 -77 -49 -9 -46
-34 3 -34 40 0 73 19 109 61 28 33 89 63 110 54 9 -3 255 -6 547 -6 292 0 567
-4 612 -7 90 -8 104 -16 209 -132 28 -30 67 -70 87 -89 l38 -33 225 -5 c188
-4 230 -2 248 10 12 8 77 69 145 134 l122 120 243 5 c133 3 589 3 1012 1 610
-5 782 -3 830 7 l60 13 -35 8 c-19 5 -508 8 -1087 8 l-1052 0 -132 -132 -133
-132 -189 -3 c-104 -2 -200 -1 -214 3 -13 3 -82 64 -153 136 l-130 130 -632
-2 c-357 0 -633 3 -633 8 0 7 47 52 106 100 13 11 189 14 947 13 l930 0 72 67
c40 38 84 71 99 75 14 4 74 7 133 7 59 0 112 3 118 6 6 3 22 -3 36 -14 33 -26
56 -27 78 -2 32 35 -5 88 -49 71z"/>
<path d="M4994 1590 c-9 -9 -168 -12 -572 -13 -308 -1 -564 -5 -568 -9 -4 -5
-4 -11 0 -15 10 -11 1020 -10 1077 0 43 8 46 7 57 -18 10 -22 18 -26 45 -23
30 3 32 5 32 43 0 37 -2 40 -30 43 -17 2 -35 -2 -41 -8z"/>
<path d="M2924 1396 c-9 -24 0 -58 18 -70 14 -8 26 -6 53 8 40 22 42 29 15 56
-23 23 -78 27 -86 6z"/>
<path d="M5804 1376 c-12 -32 0 -61 29 -64 21 -3 29 2 36 20 5 13 5 30 -1 41
-11 21 -56 23 -64 3z"/>
<path d="M5940 1375 c-18 -22 2 -65 30 -65 28 0 48 43 30 65 -7 8 -20 15 -30
15 -10 0 -23 -7 -30 -15z"/>
<path d="M6075 1370 c-16 -51 40 -86 65 -41 13 25 13 27 -6 45 -22 22 -51 20
-59 -4z"/>
<path d="M6210 1375 c-18 -22 2 -65 30 -65 28 0 48 43 30 65 -7 8 -20 15 -30
15 -10 0 -23 -7 -30 -15z"/>
<path d="M6344 1376 c-12 -32 0 -61 28 -64 22 -3 30 2 40 23 11 24 10 29 -7
41 -24 18 -54 18 -61 0z"/>
<path d="M6482 1378 c-27 -27 -6 -68 35 -68 16 0 24 7 29 25 11 43 -34 73 -64
43z"/>
<path d="M4660 1291 c-12 -23 -2 -81 15 -87 7 -3 29 2 49 10 50 21 50 56 1 79
-45 22 -52 21 -65 -2z"/>
<path d="M6842 1135 c-37 -36 -74 -65 -82 -66 -8 0 -192 -1 -409 0 l-393 1
-76 -75 -76 -75 -265 0 -265 0 -81 80 -82 80 -659 -2 -660 -2 -26 27 c-34 34
-55 34 -90 0 -44 -42 -35 -79 29 -112 19 -10 27 -7 56 19 l35 30 639 0 c729 0
639 12 749 -100 l61 -61 266 -2 c146 -1 269 -5 272 -9 12 -11 56 21 117 85
l56 59 119 11 c65 6 147 9 183 7 122 -7 355 -5 408 3 62 11 65 3 18 -47 l-33
-36 -185 0 c-153 0 -188 3 -198 15 -19 23 -67 19 -81 -6 -16 -32 6 -69 42 -69
15 0 29 7 33 15 5 13 35 15 213 15 l208 -2 35 40 c59 66 58 66 335 63 137 -1
256 -6 263 -10 7 -4 87 -81 177 -170 l162 -162 237 2 c130 1 240 -1 243 -5 6
-6 -223 -234 -262 -261 -30 -20 -440 -25 -475 -5 -14 7 -81 72 -150 144 -179
188 -182 190 -244 190 -28 0 -376 -1 -773 -2 l-721 -2 -78 -75 -78 -75 -556
-2 c-515 -3 -557 -2 -579 15 -31 23 -54 22 -77 -4 -17 -19 -17 -23 -3 -47 20
-37 62 -41 84 -9 14 22 20 24 53 16 20 -5 277 -9 571 -9 l533 0 79 77 80 77
741 1 c729 0 741 0 767 -20 66 -51 281 -272 281 -289 0 -13 -4 -16 -17 -11
-10 4 -131 11 -270 14 l-252 6 -85 83 -85 83 -333 -3 c-183 -2 -339 -7 -347
-12 -32 -21 30 -26 334 -26 l320 0 75 -75 c41 -42 88 -82 104 -91 24 -13 68
-15 290 -13 143 1 266 6 273 11 18 15 65 -15 123 -79 l53 -58 429 3 c235 2
428 -1 428 -5 0 -12 -70 -78 -96 -91 -14 -8 -294 -13 -882 -15 l-860 -5 -39
27 c-21 14 -57 46 -81 71 -24 25 -80 83 -125 129 l-82 83 -185 -4 c-102 -3
-213 -2 -247 2 -71 6 -81 3 -142 -55 -24 -22 -52 -45 -63 -51 -14 -8 -150 -11
-433 -11 -226 0 -421 -4 -432 -7 -14 -5 -33 2 -58 19 -62 42 -105 30 -105 -30
0 -55 39 -71 88 -37 24 16 47 18 200 17 95 -1 175 2 178 7 3 4 11 5 17 1 6 -4
137 -7 291 -8 l279 -2 46 45 c83 80 68 77 320 74 197 -2 227 -5 242 -20 149
-150 270 -263 289 -270 14 -5 425 -9 913 -11 l888 -2 72 71 c39 39 82 73 95
77 14 3 72 3 131 -1 155 -9 411 3 411 21 0 10 -48 13 -253 13 -140 0 -257 3
-260 7 -7 6 60 69 97 90 14 9 82 12 219 13 190 0 197 1 197 20 0 19 -7 20
-218 20 l-218 0 -76 -75 -77 -75 -428 0 -428 0 -45 36 c-25 20 -45 41 -45 47
0 9 54 11 207 8 l206 -3 124 124 c67 69 137 140 153 159 52 59 54 59 468 56
360 -2 377 -1 377 16 0 18 -16 19 -370 15 -337 -3 -369 -2 -365 13 3 9 56 66
118 128 l112 111 253 0 c245 0 252 1 252 20 0 19 -7 20 -263 20 l-264 0 -119
-125 c-152 -160 -178 -178 -247 -170 -29 3 -135 8 -237 10 -102 2 -189 4 -193
4 -5 1 -79 72 -165 160 -86 87 -168 164 -181 171 -17 9 -87 11 -255 9 -151 -3
-231 0 -231 6 0 6 19 27 41 48 l41 37 1037 0 c1029 0 1036 0 1036 20 0 20 -7
20 -1045 20 l-1045 0 -68 -65z m-3102 -81 c0 -14 -21 -19 -33 -7 -9 9 13 34
24 27 5 -3 9 -12 9 -20z"/>
<path d="M2782 1161 c-8 -5 -12 -21 -10 -37 3 -26 7 -29 38 -29 30 0 36 4 38
24 6 37 -35 62 -66 42z"/>
<path d="M2901 1156 c-20 -23 -10 -60 17 -64 32 -5 54 16 46 42 -8 25 -5 22
-30 30 -13 4 -26 1 -33 -8z"/>
<path d="M3023 1163 c-7 -2 -13 -20 -13 -39 0 -27 4 -34 19 -34 34 0 51 12 51
36 0 19 -27 47 -42 43 -2 0 -9 -3 -15 -6z"/>
<path d="M3132 1161 c-8 -5 -12 -21 -10 -37 3 -25 7 -29 33 -29 24 0 31 5 33
24 3 15 -3 30 -14 38 -21 15 -24 16 -42 4z"/>
<path d="M3245 1156 c-26 -19 -16 -60 16 -64 31 -4 50 16 43 45 -7 26 -37 35
-59 19z"/>
<path d="M3350 1155 c-7 -8 -10 -25 -6 -40 5 -19 13 -25 35 -25 69 0 59 78
-10 80 -4 0 -12 -7 -19 -15z"/>
<path d="M700 1015 c-19 -35 2 -59 44 -50 17 3 195 6 396 5 l365 0 21 -23 c11
-12 46 -46 77 -76 l55 -54 129 -2 c70 -2 147 -6 169 -10 47 -8 59 2 50 39 l-6
24 -153 -6 c-95 -3 -161 -1 -172 5 -10 6 -49 41 -86 79 l-69 68 -368 -2 c-315
-3 -370 -1 -387 12 -29 22 -50 19 -65 -9z"/>
<path d="M7612 1004 c-15 -26 -2 -54 27 -61 14 -3 51 -33 82 -65 l55 -58 189
0 189 0 58 60 c31 33 63 60 71 60 27 0 41 28 29 55 -7 14 -16 25 -22 25 -22 0
-50 -21 -50 -36 0 -9 -25 -40 -56 -70 l-55 -54 -162 0 -162 0 -54 47 c-29 26
-60 62 -67 80 -11 25 -21 33 -39 33 -13 0 -28 -7 -33 -16z"/>
<path d="M0 990 c0 -19 7 -20 208 -19 114 0 216 0 228 0 23 -1 126 -89 119
-101 -3 -4 -129 -7 -280 -6 l-275 1 0 -28 c0 -24 2 -26 19 -17 12 6 125 10
298 10 298 0 304 -1 341 -52 35 -49 295 -298 310 -298 9 0 159 -2 332 -5 173
-3 403 -3 510 1 l195 7 50 51 c93 94 27 86 666 86 481 0 568 -2 585 -15 57
-43 115 24 64 75 -25 25 -31 25 -64 -1 -26 -20 -35 -21 -571 -22 -300 -1 -545
1 -545 4 0 4 32 36 70 73 l70 66 1278 0 c770 0 1283 4 1292 10 19 12 10 20
-37 30 -59 14 -2520 12 -2547 -2 -11 -6 -62 -51 -112 -99 l-92 -89 -217 6
-217 5 -43 32 c-23 18 -82 63 -130 101 l-88 70 -395 -2 -395 -3 -71 76 -71 75
-242 0 c-236 0 -243 -1 -243 -20z m1402 -178 c14 -9 60 -44 102 -77 42 -33 93
-72 114 -87 l37 -27 206 -1 c113 0 209 -3 213 -7 7 -7 -92 -102 -109 -104 -5
-1 -64 0 -130 2 -66 2 -281 2 -477 1 -301 -3 -361 -1 -378 11 -37 25 -300 286
-300 297 0 6 122 10 348 10 313 0 350 -2 374 -18z"/>
<path d="M4947 852 c-25 -27 -21 -48 13 -62 25 -10 34 -10 55 4 24 16 25 34 2
64 -14 18 -51 15 -70 -6z"/>
<path d="M0 690 c0 -18 7 -20 78 -20 l77 0 86 -87 c47 -49 117 -118 156 -154
38 -36 68 -70 66 -75 -2 -7 -82 -10 -233 -7 -225 3 -230 3 -230 -17 0 -19 7
-20 178 -22 97 -1 207 -1 243 1 80 3 103 -7 181 -83 l57 -56 1208 0 1208 1 57
53 c31 30 65 59 77 65 13 7 165 11 463 11 368 0 448 2 464 14 10 8 15 18 11
23 -5 4 -218 9 -473 11 -370 2 -468 0 -483 -10 -11 -8 -49 -41 -85 -75 l-65
-62 -1177 -1 -1176 0 -49 41 c-27 22 -49 49 -49 59 0 16 7 18 73 13 64 -4
1179 -6 1317 -2 30 1 155 -1 278 -5 142 -4 229 -3 241 4 11 5 60 50 111 100
l92 90 491 0 c271 0 498 4 506 9 11 7 11 10 0 17 -8 5 -240 10 -517 12 l-503
3 -90 -88 c-49 -48 -94 -90 -101 -94 -17 -9 -308 -21 -468 -19 -69 1 -426 1
-793 0 -448 0 -674 3 -688 10 -10 6 -96 89 -191 185 l-171 175 -89 0 c-81 0
-88 -2 -88 -20z"/>
<path d="M410 690 c-9 -17 -6 -24 16 -45 14 -13 34 -27 43 -31 9 -3 57 -50
106 -103 50 -53 101 -102 114 -109 18 -11 95 -14 345 -15 l321 0 0 24 c0 28
-31 37 -67 18 -16 -9 -80 -12 -213 -11 -104 1 -225 1 -268 2 l-77 0 -115 112
c-63 62 -122 127 -130 145 -19 39 -58 45 -75 13z"/>
<path d="M8352 634 c-30 -21 -28 -52 4 -66 22 -11 28 -10 40 7 19 25 18 39 -4
58 -16 15 -20 15 -40 1z"/>
<path d="M8474 626 c-9 -23 -1 -48 18 -60 26 -16 68 26 52 52 -14 22 -62 28
-70 8z"/>
<path d="M8612 628 c-17 -17 -15 -32 6 -51 26 -23 41 -21 54 8 19 41 -28 75
-60 43z"/>
<path d="M8744 626 c-9 -23 4 -66 20 -66 8 0 24 9 37 19 20 16 22 23 13 38
-14 24 -62 30 -70 9z"/>
<path d="M8882 628 c-18 -18 -14 -46 7 -58 30 -15 40 -12 53 15 19 41 -28 75
-60 43z"/>
<path d="M5850 593 c-18 -6 -40 -33 -40 -48 0 -13 52 -45 72 -45 24 0 40 46
26 75 -11 24 -27 29 -58 18z"/>
<path d="M3740 544 c-11 -27 -4 -70 12 -80 14 -9 50 3 81 28 l29 23 -26 28
c-34 37 -82 38 -96 1z"/>
<path d="M1784 426 c-10 -26 0 -51 21 -51 16 0 20 7 20 30 0 33 -30 49 -41 21z"/>
<path d="M1862 431 c-23 -14 -10 -46 21 -49 26 -3 28 -1 25 25 -3 29 -23 39
-46 24z"/>
<path d="M1936 424 c-3 -8 -1 -24 4 -35 8 -15 15 -17 29 -10 10 6 35 8 55 4
34 -5 36 -4 36 20 0 35 -16 42 -47 22 -24 -16 -27 -16 -35 -1 -11 20 -34 21
-42 0z"/>
<path d="M2086 423 c-3 -8 -1 -23 4 -34 9 -16 14 -17 32 -8 15 8 27 8 44 0 34
-15 56 -4 52 28 -3 25 -6 26 -65 27 -45 1 -63 -3 -67 -13z"/>
<path d="M6424 414 c-4 -17 -1 -31 9 -41 13 -13 20 -13 52 -2 37 14 37 13 73
-27 21 -22 57 -58 81 -79 l44 -40 246 -1 c135 0 263 -4 284 -8 l38 -8 -3 33
c-3 31 -5 34 -33 30 -16 -2 -139 -4 -272 -5 l-243 -1 -77 78 c-51 50 -86 77
-101 77 -12 0 -22 5 -22 10 0 6 -16 10 -35 10 -29 0 -36 -4 -41 -26z"/>
<path d="M4232 360 c-35 -21 -39 -36 -19 -64 14 -19 72 -25 88 -9 16 16 6 64
-16 79 -18 12 -25 11 -53 -6z"/>
<path d="M5805 319 c-4 -5 -4 -21 -1 -35 5 -19 13 -24 36 -24 35 0 59 33 39
56 -13 16 -65 19 -74 3z"/>
<path d="M5905 309 c-12 -18 2 -22 102 -26 54 -2 108 -10 121 -16 13 -6 69
-57 125 -112 56 -56 118 -113 138 -128 l36 -27 319 1 c175 1 312 3 304 5 -8 2
-144 5 -301 6 -256 3 -287 5 -303 20 -10 10 -21 18 -25 18 -6 0 -152 145 -206
205 -53 59 -70 65 -192 65 -68 0 -114 -4 -118 -11z"/>
<path d="M10 230 c-12 -7 -12 -13 -4 -27 16 -26 41 -28 49 -4 11 36 -12 52
-45 31z"/>
<path d="M73 222 c-3 -7 1 -21 10 -29 13 -13 19 -14 30 -4 11 8 22 9 42 1 20
-7 31 -7 41 1 15 12 19 38 7 40 -73 7 -126 4 -130 -9z"/>
<path d="M225 230 c-9 -15 4 -50 20 -50 7 0 16 8 20 18 6 16 7 16 20 -1 18
-25 59 -19 63 10 3 17 -3 24 -22 29 -15 3 -32 1 -40 -5 -10 -8 -16 -9 -21 -1
-8 13 -32 13 -40 0z"/>
<path d="M4750 202 c-32 -26 -20 -62 20 -62 30 0 57 31 45 50 -15 25 -43 30
-65 12z"/>
<path d="M5163 209 c-40 -15 -26 -69 17 -69 30 0 44 21 35 50 -7 23 -24 29
-52 19z"/>
<path d="M5290 206 c-6 -8 -10 -25 -8 -38 2 -18 9 -23 33 -23 24 0 31 5 33 23
6 42 -33 68 -58 38z"/>
<path d="M5433 210 c-43 -17 -24 -74 23 -68 32 3 45 38 24 64 -14 16 -16 16
-47 4z"/>
<path d="M4875 199 c-4 -5 -4 -21 -1 -35 5 -19 13 -24 36 -24 23 0 31 5 36 24
8 34 -2 46 -36 46 -16 0 -32 -5 -35 -11z"/>
<path d="M5011 196 c-20 -24 4 -58 37 -54 23 2 27 8 27 33 0 25 -4 31 -26 33
-14 2 -31 -4 -38 -12z"/>
<path d="M3490 170 c0 -36 24 -50 47 -28 19 20 1 58 -27 58 -16 0 -20 -7 -20
-30z"/>
<path d="M3571 178 c-12 -19 -11 -23 5 -35 35 -26 59 -8 47 36 -7 27 -35 27
-52 -1z"/>
<path d="M3658 175 c-13 -29 -10 -34 23 -37 20 -3 24 2 27 30 3 27 0 32 -18
32 -12 0 -25 -10 -32 -25z"/>
<path d="M3744 186 c-15 -38 13 -67 45 -47 21 13 6 61 -20 61 -11 0 -22 -6
-25 -14z"/>
<path d="M3832 168 c3 -36 16 -44 42 -25 15 11 17 17 7 35 -6 12 -21 22 -32
22 -17 0 -20 -5 -17 -32z"/>
<path d="M3914 176 c-7 -30 1 -46 25 -46 29 0 45 25 31 49 -15 29 -48 27 -56
-3z"/>
<path d="M8820 119 c-9 -16 -8 -25 6 -40 9 -10 22 -19 29 -19 7 0 20 9 29 19
23 25 6 61 -29 61 -14 0 -29 -8 -35 -21z"/>
<path d="M8954 116 c-7 -31 1 -46 27 -46 15 0 19 7 19 35 0 28 -4 35 -20 35
-12 0 -22 -9 -26 -24z"/>
<path d="M1663 119 c-7 -7 -269 -10 -837 -9 -707 0 -826 -1 -826 -14 0 -7 6
-16 13 -19 23 -8 1512 -7 1572 2 53 8 62 7 77 -10 36 -42 104 -7 78 41 -12 22
-58 28 -77 9z"/>
<path d="M2650 89 c-7 -11 -9 -27 -6 -35 6 -16 42 -19 51 -4 4 6 12 7 18 3 17
-11 126 -12 133 -2 3 5 14 3 24 -3 25 -16 45 1 35 31 -8 25 -30 28 -39 5 -6
-15 -8 -15 -25 0 -15 13 -24 14 -46 6 -20 -8 -31 -7 -41 1 -11 9 -18 8 -32 -4
-16 -15 -19 -15 -30 3 -16 26 -29 25 -42 -1z"/>
<path d="M2930 86 c-16 -16 -12 -34 8 -39 9 -2 40 -3 67 -3 46 1 50 3 50 26 0
24 -3 25 -58 25 -32 0 -62 -4 -67 -9z"/>
<path d="M7140 31 c-15 -29 -13 -31 30 -31 22 0 40 3 40 6 0 18 -24 44 -40 44
-11 0 -24 -9 -30 -19z"/>
</g>
</svg>
